<svg xmlns="http://www.w3.org/2000/svg" xmlns:xlink="http://www.w3.org/1999/xlink" width="500" zoomAndPan="magnify" viewBox="0 0 375 374.999991" height="500" preserveAspectRatio="xMidYMid meet" version="1.0"><defs><g/><clipPath id="ee54c7ee73"><path d="M 48.222656 54.832031 L 288.304688 54.832031 L 288.304688 294.910156 L 48.222656 294.910156 Z M 48.222656 54.832031 " clip-rule="nonzero"/></clipPath><clipPath id="438559f079"><path d="M 168.261719 54.832031 C 101.964844 54.832031 48.222656 108.574219 48.222656 174.871094 C 48.222656 241.167969 101.964844 294.910156 168.261719 294.910156 C 234.558594 294.910156 288.304688 241.167969 288.304688 174.871094 C 288.304688 108.574219 234.558594 54.832031 168.261719 54.832031 Z M 168.261719 54.832031 " clip-rule="nonzero"/></clipPath><clipPath id="2e6455f26b"><path d="M 0.222656 0.832031 L 240.304688 0.832031 L 240.304688 240.910156 L 0.222656 240.910156 Z M 0.222656 0.832031 " clip-rule="nonzero"/></clipPath><clipPath id="c853102825"><path d="M 120.261719 0.832031 C 53.964844 0.832031 0.222656 54.574219 0.222656 120.871094 C 0.222656 187.167969 53.964844 240.910156 120.261719 240.910156 C 186.558594 240.910156 240.304688 187.167969 240.304688 120.871094 C 240.304688 54.574219 186.558594 0.832031 120.261719 0.832031 Z M 120.261719 0.832031 " clip-rule="nonzero"/></clipPath><clipPath id="d149798012"><rect x="0" width="241" y="0" height="241"/></clipPath><clipPath id="d476439d77"><path d="M 0 0 L 283 0 L 283 336.960938 L 0 336.960938 Z M 0 0 " clip-rule="nonzero"/></clipPath><clipPath id="cad94984d2"><path d="M 60 0 L 328 0 L 328 336.960938 L 60 336.960938 Z M 60 0 " clip-rule="nonzero"/></clipPath><clipPath id="43542a16b0"><path d="M 163 315 L 177 315 L 177 336.960938 L 163 336.960938 Z M 163 315 " clip-rule="nonzero"/></clipPath><clipPath id="8c1aa0afe9"><path d="M 335 315 L 349 315 L 349 336.960938 L 335 336.960938 Z M 335 315 " clip-rule="nonzero"/></clipPath><clipPath id="339b515583"><rect x="0" width="375" y="0" height="337"/></clipPath></defs><rect x="-37.5" width="450" fill="#ffffff" y="-37.499999" height="449.999989" fill-opacity="1"/><rect x="-37.5" width="450" fill="#466b7d" y="-37.499999" height="449.999989" fill-opacity="1"/><g transform="matrix(1, 0, 0, 1, 0, 0)"><g clip-path="url(#339b515583)"><g clip-path="url(#ee54c7ee73)"><g clip-path="url(#438559f079)"><g transform="matrix(1, 0, 0, 1, 48, 54)"><g clip-path="url(#d149798012)"><g clip-path="url(#2e6455f26b)"><g clip-path="url(#c853102825)"><path fill="#ffffff" d="M 0.222656 0.832031 L 240.304688 0.832031 L 240.304688 240.910156 L 0.222656 240.910156 Z M 0.222656 0.832031 " fill-opacity="1" fill-rule="nonzero"/></g></g></g></g></g></g><g clip-path="url(#d476439d77)"><path stroke-linecap="round" transform="matrix(0.724681, -0.582445, 0.582445, 0.724681, -20.109336, 175.939851)" fill="none" stroke-linejoin="miter" d="M 9.925163 147.329451 C 197.559151 -39.259568 260.538055 -39.7742 198.859242 145.788832 " stroke="#466b7d" stroke-width="14" stroke-opacity="1" stroke-miterlimit="4"/></g><g clip-path="url(#cad94984d2)"><path stroke-linecap="round" transform="matrix(-0.641076, 0.673369, -0.673369, -0.641076, 374.986504, 130.376154)" fill="none" stroke-linejoin="miter" d="M 9.903433 171.132455 C 239.662125 -47.24206 301.926594 -47.709388 196.688003 169.727283 " stroke="#466b7d" stroke-width="14" stroke-opacity="1" stroke-miterlimit="4"/></g><g fill="#ffffff" fill-opacity="1"><g transform="translate(62.874752, 329.442301)"><g><path d="M 12.234375 0.375 C 9.035156 0.375 6.34375 -0.488281 4.15625 -2.21875 C 1.96875 -3.957031 0.875 -6.453125 0.875 -9.703125 C 0.875 -11.597656 1.234375 -13.289062 1.953125 -14.78125 C 2.671875 -16.269531 3.617188 -17.4375 4.796875 -18.28125 C 7.171875 -20.019531 9.835938 -20.890625 12.796875 -20.890625 C 14.515625 -20.890625 16.300781 -20.578125 18.15625 -19.953125 L 17.84375 -17.84375 C 16.875 -18.257812 16.117188 -18.570312 15.578125 -18.78125 C 14.035156 -19.332031 12.476562 -19.609375 10.90625 -19.609375 C 8.738281 -19.117188 7.070312 -18.046875 5.90625 -16.390625 C 4.738281 -14.734375 4.15625 -12.664062 4.15625 -10.1875 C 4.15625 -7.15625 4.945312 -4.816406 6.53125 -3.171875 C 8.125 -1.535156 10.222656 -0.71875 12.828125 -0.71875 C 15.429688 -0.71875 17.375 -1.273438 18.65625 -2.390625 L 18.65625 -0.6875 C 16.875 0.0195312 14.734375 0.375 12.234375 0.375 Z M 12.234375 0.375 "/></g></g></g><g fill="#ffffff" fill-opacity="1"><g transform="translate(82.458041, 329.442301)"><g><path d="M 8.296875 -14.375 C 10.117188 -14.375 11.625 -13.753906 12.8125 -12.515625 C 14 -11.273438 14.59375 -9.570312 14.59375 -7.40625 C 14.59375 -6.019531 14.351562 -4.800781 13.875 -3.75 C 13.40625 -2.695312 12.785156 -1.878906 12.015625 -1.296875 C 10.554688 -0.179688 8.921875 0.375 7.109375 0.375 C 5.304688 0.375 3.8125 -0.242188 2.625 -1.484375 C 1.4375 -2.722656 0.84375 -4.425781 0.84375 -6.59375 C 0.84375 -7.976562 1.070312 -9.195312 1.53125 -10.25 C 2 -11.3125 2.613281 -12.128906 3.375 -12.703125 C 4.84375 -13.816406 6.484375 -14.375 8.296875 -14.375 Z M 7.6875 -0.6875 C 8.59375 -0.6875 9.367188 -1.035156 10.015625 -1.734375 C 11.171875 -2.972656 11.75 -4.617188 11.75 -6.671875 C 11.75 -8.734375 11.394531 -10.335938 10.6875 -11.484375 C 9.988281 -12.628906 8.84375 -13.203125 7.25 -13.203125 C 6.070312 -12.742188 5.175781 -11.941406 4.5625 -10.796875 C 3.957031 -9.648438 3.65625 -8.265625 3.65625 -6.640625 C 3.65625 -5.023438 3.984375 -3.628906 4.640625 -2.453125 C 5.304688 -1.273438 6.320312 -0.6875 7.6875 -0.6875 Z M 7.6875 -0.6875 "/></g></g></g><g fill="#ffffff" fill-opacity="1"><g transform="translate(97.951147, 329.442301)"><g><path d="M 8.828125 -3.28125 L 8.828125 -6.46875 C 7.335938 -6.375 6.117188 -6.046875 5.171875 -5.484375 C 4.222656 -4.921875 3.75 -4.320312 3.75 -3.6875 C 3.75 -3.050781 3.910156 -2.5 4.234375 -2.03125 C 4.566406 -1.5625 4.992188 -1.234375 5.515625 -1.046875 C 6.191406 -1.171875 6.910156 -1.507812 7.671875 -2.0625 C 8.441406 -2.625 8.828125 -3.03125 8.828125 -3.28125 Z M 11.375 -4.125 C 11.375 -2.65625 11.910156 -1.539062 12.984375 -0.78125 L 11.375 0.40625 L 8.859375 -1.859375 C 7.222656 -0.367188 5.71875 0.375 4.34375 0.375 C 3.425781 0.375 2.640625 0.0859375 1.984375 -0.484375 C 1.335938 -1.066406 1.015625 -1.796875 1.015625 -2.671875 C 1.015625 -3.554688 1.28125 -4.285156 1.8125 -4.859375 C 2.34375 -5.441406 3.039062 -5.890625 3.90625 -6.203125 C 5.394531 -6.753906 7.035156 -7.101562 8.828125 -7.25 L 8.828125 -10.15625 C 8.828125 -11.875 7.835938 -12.734375 5.859375 -12.734375 C 4.722656 -12.734375 3.378906 -12.484375 1.828125 -11.984375 L 1.546875 -12.765625 C 1.960938 -13.097656 2.679688 -13.445312 3.703125 -13.8125 C 4.722656 -14.1875 5.695312 -14.375 6.625 -14.375 C 7.5625 -14.375 8.34375 -14.25 8.96875 -14 C 9.601562 -13.757812 10.066406 -13.484375 10.359375 -13.171875 C 10.660156 -12.859375 10.894531 -12.429688 11.0625 -11.890625 C 11.226562 -11.359375 11.320312 -10.9375 11.34375 -10.625 C 11.363281 -10.3125 11.375 -9.898438 11.375 -9.390625 Z M 11.375 -4.125 "/></g></g></g><g fill="#ffffff" fill-opacity="1"><g transform="translate(111.709018, 329.442301)"><g><path d="M 7.0625 0.375 C 5.269531 0.375 3.78125 -0.238281 2.59375 -1.46875 C 1.40625 -2.695312 0.8125 -4.4375 0.8125 -6.6875 C 0.8125 -8.9375 1.441406 -10.78125 2.703125 -12.21875 C 3.972656 -13.65625 5.59375 -14.375 7.5625 -14.375 C 8.65625 -14.375 9.882812 -14.109375 11.25 -13.578125 L 10.9375 -11.53125 C 9.113281 -12.476562 7.554688 -12.953125 6.265625 -12.953125 C 5.179688 -12.410156 4.398438 -11.539062 3.921875 -10.34375 C 3.453125 -9.144531 3.21875 -7.96875 3.21875 -6.8125 C 3.21875 -5.25 3.675781 -3.941406 4.59375 -2.890625 C 5.519531 -1.847656 6.625 -1.328125 7.90625 -1.328125 C 9.1875 -1.328125 10.363281 -1.609375 11.4375 -2.171875 L 11.4375 -1.078125 C 9.945312 -0.109375 8.488281 0.375 7.0625 0.375 Z M 7.0625 0.375 "/></g></g></g><g fill="#ffffff" fill-opacity="1"><g transform="translate(124.289416, 329.442301)"><g><path d="M 9.734375 -14.3125 C 10.679688 -14.3125 11.523438 -13.957031 12.265625 -13.25 C 13.015625 -12.550781 13.390625 -11.347656 13.390625 -9.640625 L 13.390625 0 L 10.78125 0 L 10.78125 -9.328125 C 10.78125 -10.335938 10.597656 -11.09375 10.234375 -11.59375 C 9.878906 -12.101562 9.1875 -12.359375 8.15625 -12.359375 C 7.132812 -12.359375 6.066406 -11.8125 4.953125 -10.71875 L 4.953125 0 L 2.359375 0 L 2.359375 -21.15625 L 4.859375 -21.15625 L 4.859375 -12.015625 C 6.492188 -13.546875 8.117188 -14.3125 9.734375 -14.3125 Z M 9.734375 -14.3125 "/></g></g></g><g fill="#ffffff" fill-opacity="1"><g transform="translate(139.875473, 329.442301)"><g><path d="M 2.328125 0 L 2.328125 -14 L 4.890625 -14 L 4.890625 0 Z M 2.015625 -18.328125 C 2.015625 -18.773438 2.160156 -19.148438 2.453125 -19.453125 C 2.753906 -19.765625 3.128906 -19.921875 3.578125 -19.921875 C 4.023438 -19.921875 4.40625 -19.765625 4.71875 -19.453125 C 5.039062 -19.148438 5.203125 -18.78125 5.203125 -18.34375 C 5.203125 -17.90625 5.039062 -17.519531 4.71875 -17.1875 C 4.40625 -16.863281 4.03125 -16.703125 3.59375 -16.703125 C 3.15625 -16.703125 2.78125 -16.859375 2.46875 -17.171875 C 2.164062 -17.492188 2.015625 -17.878906 2.015625 -18.328125 Z M 2.015625 -18.328125 "/></g></g></g><g fill="#ffffff" fill-opacity="1"><g transform="translate(147.095263, 329.442301)"><g><path d="M 5.015625 -12.015625 C 5.890625 -12.847656 6.648438 -13.445312 7.296875 -13.8125 C 7.941406 -14.1875 8.707031 -14.375 9.59375 -14.375 C 10.488281 -14.375 11.3125 -14.019531 12.0625 -13.3125 C 12.820312 -12.613281 13.203125 -11.410156 13.203125 -9.703125 L 13.203125 0 L 10.5625 0 L 10.5625 -9.390625 C 10.5625 -10.398438 10.378906 -11.15625 10.015625 -11.65625 C 9.660156 -12.164062 9.039062 -12.421875 8.15625 -12.421875 C 7.28125 -12.421875 6.265625 -11.84375 5.109375 -10.6875 L 5.109375 0 L 2.484375 0 L 2.484375 -9.734375 C 2.484375 -11.140625 1.957031 -12.265625 0.90625 -13.109375 L 2.484375 -14.28125 Z M 5.015625 -12.015625 "/></g></g></g><g clip-path="url(#43542a16b0)"><g fill="#ffffff" fill-opacity="1"><g transform="translate(162.58837, 329.442301)"><g><path d="M 4.09375 -2.78125 C 4.09375 -2.394531 4.382812 -2.128906 4.96875 -1.984375 C 5.5625 -1.835938 6.691406 -1.765625 8.359375 -1.765625 C 10.035156 -1.765625 11.378906 -1.578125 12.390625 -1.203125 C 13.398438 -0.835938 13.90625 -0.132812 13.90625 0.90625 C 13.90625 2.425781 13.15625 3.800781 11.65625 5.03125 C 10.164062 6.257812 8.335938 6.875 6.171875 6.875 C 4.597656 6.875 3.3125 6.578125 2.3125 5.984375 C 1.3125 5.398438 0.8125 4.5625 0.8125 3.46875 C 0.8125 1.914062 1.65625 0.769531 3.34375 0.03125 C 2.394531 -0.320312 1.921875 -0.976562 1.921875 -1.9375 C 1.921875 -2.894531 2.664062 -3.941406 4.15625 -5.078125 C 2.601562 -5.890625 1.828125 -7.207031 1.828125 -9.03125 C 1.828125 -10.863281 2.398438 -12.210938 3.546875 -13.078125 C 4.691406 -13.941406 5.976562 -14.375 7.40625 -14.375 C 8.414062 -14.375 9.382812 -14.097656 10.3125 -13.546875 L 13.046875 -14.3125 L 13.671875 -12.984375 L 11.75 -12.015625 C 12.132812 -11.335938 12.328125 -10.539062 12.328125 -9.625 C 12.328125 -8.71875 12.144531 -7.921875 11.78125 -7.234375 C 11.425781 -6.546875 10.957031 -6.015625 10.375 -5.640625 C 9.21875 -4.898438 7.96875 -4.53125 6.625 -4.53125 C 6.425781 -4.53125 6.140625 -4.546875 5.765625 -4.578125 C 5.410156 -4.484375 5.039062 -4.257812 4.65625 -3.90625 C 4.28125 -3.550781 4.09375 -3.175781 4.09375 -2.78125 Z M 9.890625 -9.359375 C 9.890625 -10.429688 9.601562 -11.363281 9.03125 -12.15625 C 8.46875 -12.957031 7.765625 -13.359375 6.921875 -13.359375 C 6.085938 -13.359375 5.421875 -12.992188 4.921875 -12.265625 C 4.429688 -11.546875 4.1875 -10.613281 4.1875 -9.46875 C 4.1875 -8.320312 4.460938 -7.367188 5.015625 -6.609375 C 5.578125 -5.859375 6.25 -5.484375 7.03125 -5.484375 C 8.9375 -5.484375 9.890625 -6.773438 9.890625 -9.359375 Z M 6.65625 5.453125 C 8.375 5.453125 9.832031 4.976562 11.03125 4.03125 C 12.226562 3.082031 12.828125 2.128906 12.828125 1.171875 C 11.773438 0.742188 10.300781 0.53125 8.40625 0.53125 C 6.519531 0.53125 5.21875 0.46875 4.5 0.34375 C 3.582031 1.101562 3.125 1.914062 3.125 2.78125 C 3.125 4.5625 4.300781 5.453125 6.65625 5.453125 Z M 6.65625 5.453125 "/></g></g></g></g><g fill="#ffffff" fill-opacity="1"><g transform="translate(177.771612, 329.442301)"><g/></g></g><g fill="#ffffff" fill-opacity="1"><g transform="translate(185.518165, 329.442301)"><g><path d="M 7.75 0.40625 C 6.300781 0.40625 4.914062 0.0195312 3.59375 -0.75 C 2.914062 -1.132812 2.363281 -1.710938 1.9375 -2.484375 C 1.507812 -3.265625 1.296875 -4.171875 1.296875 -5.203125 C 1.296875 -6.566406 1.816406 -7.757812 2.859375 -8.78125 C 3.910156 -9.800781 5.5 -10.488281 7.625 -10.84375 C 6.832031 -12.601562 6.4375 -14.210938 6.4375 -15.671875 C 6.4375 -16.566406 6.707031 -17.582031 7.25 -18.71875 C 7.5625 -19.351562 8.085938 -19.882812 8.828125 -20.3125 C 9.578125 -20.75 10.34375 -20.96875 11.125 -20.96875 C 11.90625 -20.96875 12.738281 -20.882812 13.625 -20.71875 C 14.519531 -20.5625 15.191406 -20.378906 15.640625 -20.171875 L 15.34375 -18.21875 C 14.019531 -19.207031 12.382812 -19.703125 10.4375 -19.703125 C 9.445312 -19.066406 8.953125 -17.921875 8.953125 -16.265625 C 8.953125 -14.609375 9.457031 -12.71875 10.46875 -10.59375 C 11.476562 -8.46875 12.84375 -6.546875 14.5625 -4.828125 C 15.28125 -6.003906 16.023438 -7.800781 16.796875 -10.21875 C 16.253906 -10.21875 15.867188 -10.226562 15.640625 -10.25 L 15.640625 -11.21875 C 17.734375 -11.28125 19.492188 -11.503906 20.921875 -11.890625 L 20.390625 -10.34375 C 20.015625 -10.28125 19.300781 -10.226562 18.25 -10.1875 C 17.425781 -7.664062 16.476562 -5.613281 15.40625 -4.03125 C 17.757812 -1.976562 20.175781 -0.953125 22.65625 -0.953125 L 21.3125 0 C 18.875 0 16.5 -0.835938 14.1875 -2.515625 C 12.394531 -0.566406 10.25 0.40625 7.75 0.40625 Z M 8.640625 -1.046875 C 10.441406 -1.046875 12.015625 -1.75 13.359375 -3.15625 C 11.140625 -4.976562 9.375 -7.210938 8.0625 -9.859375 C 6.65625 -9.460938 5.625 -8.832031 4.96875 -7.96875 C 4.320312 -7.113281 4 -6.191406 4 -5.203125 C 4 -3.773438 4.4375 -2.722656 5.3125 -2.046875 C 6.1875 -1.378906 7.296875 -1.046875 8.640625 -1.046875 Z M 8.640625 -1.046875 "/></g></g></g><g fill="#ffffff" fill-opacity="1"><g transform="translate(209.625435, 329.442301)"><g/></g></g><g fill="#ffffff" fill-opacity="1"><g transform="translate(217.371988, 329.442301)"><g><path d="M 12.234375 0.375 C 9.035156 0.375 6.34375 -0.488281 4.15625 -2.21875 C 1.96875 -3.957031 0.875 -6.453125 0.875 -9.703125 C 0.875 -11.597656 1.234375 -13.289062 1.953125 -14.78125 C 2.671875 -16.269531 3.617188 -17.4375 4.796875 -18.28125 C 7.171875 -20.019531 9.835938 -20.890625 12.796875 -20.890625 C 14.515625 -20.890625 16.300781 -20.578125 18.15625 -19.953125 L 17.84375 -17.84375 C 16.875 -18.257812 16.117188 -18.570312 15.578125 -18.78125 C 14.035156 -19.332031 12.476562 -19.609375 10.90625 -19.609375 C 8.738281 -19.117188 7.070312 -18.046875 5.90625 -16.390625 C 4.738281 -14.734375 4.15625 -12.664062 4.15625 -10.1875 C 4.15625 -7.15625 4.945312 -4.816406 6.53125 -3.171875 C 8.125 -1.535156 10.222656 -0.71875 12.828125 -0.71875 C 15.429688 -0.71875 17.375 -1.273438 18.65625 -2.390625 L 18.65625 -0.6875 C 16.875 0.0195312 14.734375 0.375 12.234375 0.375 Z M 12.234375 0.375 "/></g></g></g><g fill="#ffffff" fill-opacity="1"><g transform="translate(236.955277, 329.442301)"><g><path d="M 8.296875 -14.375 C 10.117188 -14.375 11.625 -13.753906 12.8125 -12.515625 C 14 -11.273438 14.59375 -9.570312 14.59375 -7.40625 C 14.59375 -6.019531 14.351562 -4.800781 13.875 -3.75 C 13.40625 -2.695312 12.785156 -1.878906 12.015625 -1.296875 C 10.554688 -0.179688 8.921875 0.375 7.109375 0.375 C 5.304688 0.375 3.8125 -0.242188 2.625 -1.484375 C 1.4375 -2.722656 0.84375 -4.425781 0.84375 -6.59375 C 0.84375 -7.976562 1.070312 -9.195312 1.53125 -10.25 C 2 -11.3125 2.613281 -12.128906 3.375 -12.703125 C 4.84375 -13.816406 6.484375 -14.375 8.296875 -14.375 Z M 7.6875 -0.6875 C 8.59375 -0.6875 9.367188 -1.035156 10.015625 -1.734375 C 11.171875 -2.972656 11.75 -4.617188 11.75 -6.671875 C 11.75 -8.734375 11.394531 -10.335938 10.6875 -11.484375 C 9.988281 -12.628906 8.84375 -13.203125 7.25 -13.203125 C 6.070312 -12.742188 5.175781 -11.941406 4.5625 -10.796875 C 3.957031 -9.648438 3.65625 -8.265625 3.65625 -6.640625 C 3.65625 -5.023438 3.984375 -3.628906 4.640625 -2.453125 C 5.304688 -1.273438 6.320312 -0.6875 7.6875 -0.6875 Z M 7.6875 -0.6875 "/></g></g></g><g fill="#ffffff" fill-opacity="1"><g transform="translate(252.448383, 329.442301)"><g><path d="M 5.015625 -12.015625 C 5.890625 -12.847656 6.648438 -13.445312 7.296875 -13.8125 C 7.941406 -14.1875 8.707031 -14.375 9.59375 -14.375 C 10.488281 -14.375 11.3125 -14.019531 12.0625 -13.3125 C 12.820312 -12.613281 13.203125 -11.410156 13.203125 -9.703125 L 13.203125 0 L 10.5625 0 L 10.5625 -9.390625 C 10.5625 -10.398438 10.378906 -11.15625 10.015625 -11.65625 C 9.660156 -12.164062 9.039062 -12.421875 8.15625 -12.421875 C 7.28125 -12.421875 6.265625 -11.84375 5.109375 -10.6875 L 5.109375 0 L 2.484375 0 L 2.484375 -9.734375 C 2.484375 -11.140625 1.957031 -12.265625 0.90625 -13.109375 L 2.484375 -14.28125 Z M 5.015625 -12.015625 "/></g></g></g><g fill="#ffffff" fill-opacity="1"><g transform="translate(267.941489, 329.442301)"><g><path d="M 5.234375 -13.078125 C 4.703125 -13.078125 4.265625 -12.875 3.921875 -12.46875 C 3.578125 -12.0625 3.40625 -11.601562 3.40625 -11.09375 C 3.40625 -10.59375 3.644531 -10.109375 4.125 -9.640625 C 4.613281 -9.179688 5.203125 -8.769531 5.890625 -8.40625 C 6.585938 -8.050781 7.273438 -7.675781 7.953125 -7.28125 C 8.640625 -6.882812 9.222656 -6.375 9.703125 -5.75 C 10.191406 -5.132812 10.4375 -4.445312 10.4375 -3.6875 C 10.4375 -2.53125 9.972656 -1.5625 9.046875 -0.78125 C 8.117188 -0.0078125 6.851562 0.375 5.25 0.375 C 3.644531 0.375 2.1875 0 0.875 -0.75 L 0.875 -1.921875 C 2.269531 -1.222656 3.535156 -0.875 4.671875 -0.875 C 5.804688 -0.875 6.632812 -1.097656 7.15625 -1.546875 C 7.675781 -2.003906 7.9375 -2.523438 7.9375 -3.109375 C 7.9375 -3.703125 7.703125 -4.226562 7.234375 -4.6875 C 6.765625 -5.15625 6.195312 -5.5625 5.53125 -5.90625 C 4.863281 -6.257812 4.195312 -6.632812 3.53125 -7.03125 C 2.875 -7.425781 2.3125 -7.929688 1.84375 -8.546875 C 1.375 -9.171875 1.140625 -9.921875 1.140625 -10.796875 C 1.140625 -11.671875 1.492188 -12.484375 2.203125 -13.234375 C 2.921875 -13.992188 4.023438 -14.375 5.515625 -14.375 C 7.003906 -14.375 8.429688 -14.109375 9.796875 -13.578125 L 9.484375 -11.53125 C 7.953125 -12.351562 6.535156 -12.867188 5.234375 -13.078125 Z M 5.234375 -13.078125 "/></g></g></g><g fill="#ffffff" fill-opacity="1"><g transform="translate(279.468361, 329.442301)"><g><path d="M 12.296875 -4.15625 C 12.296875 -2.726562 12.832031 -1.601562 13.90625 -0.78125 L 12.296875 0.375 L 9.796875 -1.890625 C 8.941406 -1.085938 8.179688 -0.507812 7.515625 -0.15625 C 6.859375 0.195312 6.082031 0.375 5.1875 0.375 C 4.289062 0.375 3.460938 0.03125 2.703125 -0.65625 C 1.953125 -1.351562 1.578125 -2.550781 1.578125 -4.25 L 1.578125 -14 L 4.21875 -14 L 4.21875 -4.09375 C 4.21875 -3.101562 4.394531 -2.351562 4.75 -1.84375 C 5.113281 -1.332031 5.742188 -1.078125 6.640625 -1.078125 C 7.546875 -1.078125 8.554688 -1.738281 9.671875 -3.0625 L 9.671875 -14 L 12.296875 -14 Z M 12.296875 -4.15625 "/></g></g></g><g fill="#ffffff" fill-opacity="1"><g transform="translate(294.34174, 329.442301)"><g><path d="M 4.921875 -21.15625 L 4.921875 0 L 2.328125 0 L 2.328125 -21.15625 Z M 4.921875 -21.15625 "/></g></g></g><g fill="#ffffff" fill-opacity="1"><g transform="translate(301.592528, 329.442301)"><g><path d="M 5.421875 -2.734375 C 5.421875 -2.109375 5.546875 -1.640625 5.796875 -1.328125 C 6.046875 -1.023438 6.457031 -0.875 7.03125 -0.875 C 7.613281 -0.875 8.304688 -1.023438 9.109375 -1.328125 L 9.109375 -0.46875 C 7.910156 0.09375 6.835938 0.375 5.890625 0.375 C 4.941406 0.375 4.191406 0.113281 3.640625 -0.40625 C 3.085938 -0.9375 2.8125 -1.757812 2.8125 -2.875 L 2.8125 -12.890625 L 0.3125 -13.390625 L 0.3125 -14 L 2.8125 -14 L 2.8125 -15.125 L 5.421875 -17.015625 L 5.421875 -14 L 9.109375 -14 L 9.109375 -12.890625 L 5.421875 -12.890625 Z M 5.421875 -2.734375 "/></g></g></g><g fill="#ffffff" fill-opacity="1"><g transform="translate(311.786965, 329.442301)"><g><path d="M 2.328125 0 L 2.328125 -14 L 4.890625 -14 L 4.890625 0 Z M 2.015625 -18.328125 C 2.015625 -18.773438 2.160156 -19.148438 2.453125 -19.453125 C 2.753906 -19.765625 3.128906 -19.921875 3.578125 -19.921875 C 4.023438 -19.921875 4.40625 -19.765625 4.71875 -19.453125 C 5.039062 -19.148438 5.203125 -18.78125 5.203125 -18.34375 C 5.203125 -17.90625 5.039062 -17.519531 4.71875 -17.1875 C 4.40625 -16.863281 4.03125 -16.703125 3.59375 -16.703125 C 3.15625 -16.703125 2.78125 -16.859375 2.46875 -17.171875 C 2.164062 -17.492188 2.015625 -17.878906 2.015625 -18.328125 Z M 2.015625 -18.328125 "/></g></g></g><g fill="#ffffff" fill-opacity="1"><g transform="translate(319.006756, 329.442301)"><g><path d="M 5.015625 -12.015625 C 5.890625 -12.847656 6.648438 -13.445312 7.296875 -13.8125 C 7.941406 -14.1875 8.707031 -14.375 9.59375 -14.375 C 10.488281 -14.375 11.3125 -14.019531 12.0625 -13.3125 C 12.820312 -12.613281 13.203125 -11.410156 13.203125 -9.703125 L 13.203125 0 L 10.5625 0 L 10.5625 -9.390625 C 10.5625 -10.398438 10.378906 -11.15625 10.015625 -11.65625 C 9.660156 -12.164062 9.039062 -12.421875 8.15625 -12.421875 C 7.28125 -12.421875 6.265625 -11.84375 5.109375 -10.6875 L 5.109375 0 L 2.484375 0 L 2.484375 -9.734375 C 2.484375 -11.140625 1.957031 -12.265625 0.90625 -13.109375 L 2.484375 -14.28125 Z M 5.015625 -12.015625 "/></g></g></g><g clip-path="url(#8c1aa0afe9)"><g fill="#ffffff" fill-opacity="1"><g transform="translate(334.49989, 329.442301)"><g><path d="M 4.09375 -2.78125 C 4.09375 -2.394531 4.382812 -2.128906 4.96875 -1.984375 C 5.5625 -1.835938 6.691406 -1.765625 8.359375 -1.765625 C 10.035156 -1.765625 11.378906 -1.578125 12.390625 -1.203125 C 13.398438 -0.835938 13.90625 -0.132812 13.90625 0.90625 C 13.90625 2.425781 13.15625 3.800781 11.65625 5.03125 C 10.164062 6.257812 8.335938 6.875 6.171875 6.875 C 4.597656 6.875 3.3125 6.578125 2.3125 5.984375 C 1.3125 5.398438 0.8125 4.5625 0.8125 3.46875 C 0.8125 1.914062 1.65625 0.769531 3.34375 0.03125 C 2.394531 -0.320312 1.921875 -0.976562 1.921875 -1.9375 C 1.921875 -2.894531 2.664062 -3.941406 4.15625 -5.078125 C 2.601562 -5.890625 1.828125 -7.207031 1.828125 -9.03125 C 1.828125 -10.863281 2.398438 -12.210938 3.546875 -13.078125 C 4.691406 -13.941406 5.976562 -14.375 7.40625 -14.375 C 8.414062 -14.375 9.382812 -14.097656 10.3125 -13.546875 L 13.046875 -14.3125 L 13.671875 -12.984375 L 11.75 -12.015625 C 12.132812 -11.335938 12.328125 -10.539062 12.328125 -9.625 C 12.328125 -8.71875 12.144531 -7.921875 11.78125 -7.234375 C 11.425781 -6.546875 10.957031 -6.015625 10.375 -5.640625 C 9.21875 -4.898438 7.96875 -4.53125 6.625 -4.53125 C 6.425781 -4.53125 6.140625 -4.546875 5.765625 -4.578125 C 5.410156 -4.484375 5.039062 -4.257812 4.65625 -3.90625 C 4.28125 -3.550781 4.09375 -3.175781 4.09375 -2.78125 Z M 9.890625 -9.359375 C 9.890625 -10.429688 9.601562 -11.363281 9.03125 -12.15625 C 8.46875 -12.957031 7.765625 -13.359375 6.921875 -13.359375 C 6.085938 -13.359375 5.421875 -12.992188 4.921875 -12.265625 C 4.429688 -11.546875 4.1875 -10.613281 4.1875 -9.46875 C 4.1875 -8.320312 4.460938 -7.367188 5.015625 -6.609375 C 5.578125 -5.859375 6.25 -5.484375 7.03125 -5.484375 C 8.9375 -5.484375 9.890625 -6.773438 9.890625 -9.359375 Z M 6.65625 5.453125 C 8.375 5.453125 9.832031 4.976562 11.03125 4.03125 C 12.226562 3.082031 12.828125 2.128906 12.828125 1.171875 C 11.773438 0.742188 10.300781 0.53125 8.40625 0.53125 C 6.519531 0.53125 5.21875 0.46875 4.5 0.34375 C 3.582031 1.101562 3.125 1.914062 3.125 2.78125 C 3.125 4.5625 4.300781 5.453125 6.65625 5.453125 Z M 6.65625 5.453125 "/></g></g></g></g><g fill="#ffffff" fill-opacity="1"><g transform="translate(275.563074, 279.374824)"><g><path d="M 2.78125 0 L 2.78125 -20.515625 L 15.21875 -20.515625 L 14.90625 -18.4375 L 9.140625 -19.390625 C 8.128906 -19.390625 7.015625 -19.21875 5.796875 -18.875 L 5.796875 -11.34375 L 12.671875 -11.34375 L 12.671875 -10.15625 L 5.796875 -10.15625 L 5.796875 -1.109375 L 15.40625 -2.078125 L 15.09375 0 Z M 2.78125 0 "/></g></g></g><g fill="#ffffff" fill-opacity="1"><g transform="translate(292.977316, 279.374824)"><g><path d="M 11 -11.03125 L 19.09375 0 L 15.21875 0 L 9.390625 -9.046875 L 2.8125 0 L 0.921875 0 L 8.671875 -9.953125 L 1.296875 -20.515625 L 5.171875 -20.515625 L 10.3125 -11.984375 L 16.765625 -20.515625 L 18.65625 -20.515625 Z M 11 -11.03125 "/></g></g></g><g fill="#ffffff" fill-opacity="1"><g transform="translate(312.994402, 279.374824)"><g><path d="M 18.03125 -20.515625 L 18.03125 -7.9375 C 18.03125 -6.007812 17.820312 -4.5625 17.40625 -3.59375 C 17.226562 -3.15625 16.9375 -2.660156 16.53125 -2.109375 C 16.125 -1.566406 15.65625 -1.132812 15.125 -0.8125 C 13.757812 -0.0195312 12.054688 0.375 10.015625 0.375 C 4.890625 0.375 2.328125 -2.257812 2.328125 -7.53125 L 2.328125 -20.515625 L 5.484375 -20.515625 L 5.484375 -7.28125 C 5.484375 -6.675781 5.492188 -6.1875 5.515625 -5.8125 C 5.535156 -5.445312 5.644531 -4.921875 5.84375 -4.234375 C 6.039062 -3.554688 6.304688 -3.007812 6.640625 -2.59375 C 6.984375 -2.1875 7.519531 -1.816406 8.25 -1.484375 C 8.988281 -1.148438 9.863281 -0.984375 10.875 -0.984375 C 14.738281 -0.984375 16.671875 -3.050781 16.671875 -7.1875 L 16.671875 -20.515625 Z M 18.03125 -20.515625 "/></g></g></g><g fill="#ffffff" fill-opacity="1"><g transform="translate(333.352337, 279.374824)"><g><path d="M 5.015625 -16.953125 C 5.015625 -16.035156 5.367188 -15.191406 6.078125 -14.421875 C 6.796875 -13.648438 7.664062 -12.96875 8.6875 -12.375 C 9.707031 -11.789062 10.722656 -11.191406 11.734375 -10.578125 C 12.753906 -9.972656 13.617188 -9.222656 14.328125 -8.328125 C 15.046875 -7.441406 15.40625 -6.460938 15.40625 -5.390625 C 15.40625 -3.691406 14.78125 -2.304688 13.53125 -1.234375 C 12.28125 -0.160156 10.585938 0.375 8.453125 0.375 C 6.328125 0.375 4.222656 -0.03125 2.140625 -0.84375 L 2.140625 -2.296875 C 4.242188 -1.242188 6.035156 -0.71875 7.515625 -0.71875 C 8.992188 -0.71875 10.144531 -1.078125 10.96875 -1.796875 C 11.789062 -2.515625 12.203125 -3.515625 12.203125 -4.796875 C 12.203125 -5.671875 11.859375 -6.460938 11.171875 -7.171875 C 10.492188 -7.878906 9.671875 -8.5 8.703125 -9.03125 C 7.734375 -9.5625 6.765625 -10.101562 5.796875 -10.65625 C 4.828125 -11.21875 4 -11.925781 3.3125 -12.78125 C 2.632812 -13.632812 2.296875 -14.671875 2.296875 -15.890625 C 2.296875 -17.109375 2.835938 -18.242188 3.921875 -19.296875 C 5.003906 -20.359375 6.617188 -20.890625 8.765625 -20.890625 C 10.171875 -20.890625 11.945312 -20.566406 14.09375 -19.921875 L 13.78125 -17.8125 C 11 -19.007812 8.613281 -19.609375 6.625 -19.609375 C 5.550781 -19.097656 5.015625 -18.210938 5.015625 -16.953125 Z M 5.015625 -16.953125 "/></g></g></g></g></g></svg>